<svg width="157" height="29" viewBox="0 0 157 29" xmlns="http://www.w3.org/2000/svg"><g fill="none" fill-rule="evenodd"><polygon fill="#46ECA1" fill-rule="nonzero" points="39 0 0 0 0 29 39 29"/><g transform="translate(3 3)" fill="#8330FF" fill-rule="nonzero"><circle cx="1.5" cy="1.5" r="1.5"/><circle cx="11.5" cy="11.5" r="1.5"/><circle cx="21.5" cy="21.5" r="1.5"/><circle cx="31.5" cy="11.5" r="1.5"/></g><path d="M34.5,2.9999999 C35.1077928,3.00034045 35.6553055,3.3674189 35.8864518,3.92954308 C36.1175982,4.49166726 35.9866849,5.13771556 35.5549435,5.56551412 C35.1232021,5.99331268 34.47598,6.1182936 33.916,5.882 L25.857,13.86 C26.1533717,14.489451 25.9780166,15.240077 25.4334446,15.6730736 C24.8888726,16.1060702 24.118038,16.1077725 23.5715589,15.6771852 C23.0250798,15.246598 22.8464112,14.4967538 23.14,13.866 L15.034,5.902 C14.6880759,6.03419792 14.3054294,6.03348536 13.96,5.9 L5.83,13.805 C6.16829,14.4522913 5.99119726,15.2491482 5.41058521,15.6922235 C4.82997315,16.1352989 4.01463182,16.095786 3.47958437,15.5986438 C2.94453692,15.1015016 2.84532729,14.2912546 3.2446228,13.679708 C3.64391831,13.0681615 4.42563953,12.8330983 5.096,13.123 L13.197,5.244 C12.836635,4.61265843 12.9808415,3.81378805 13.5392007,3.34828814 C14.0975598,2.88278822 14.9093393,2.88466012 15.4655456,3.35273013 C16.021752,3.82080014 16.1622728,4.62032708 15.799,5.25 L23.842,13.151 C24.2550785,12.9487185 24.7383057,12.9479808 25.152,13.149 L33.176,5.206 C32.9279525,4.74101048 32.9421239,4.17995868 33.2133301,3.7280848 C33.4845364,3.27621092 33.9729869,2.9998126 34.5,2.9999999 Z" fill="#F9FCFD" fill-rule="nonzero"/><circle fill="#0000C2" fill-rule="nonzero" cx="4.5" cy="24.5" r="1.5"/><circle fill="#0000C2" fill-rule="nonzero" cx="14.5" cy="24.5" r="1.5"/><circle fill="#0000C2" fill-rule="nonzero" cx="24.5" cy="4.5" r="1.5"/><circle fill="#0000C2" fill-rule="nonzero" cx="34.5" cy="24.5" r="1.5"/><polyline stroke="#0000C2" stroke-linecap="round" stroke-linejoin="round" points="34.5 24.4 24.5 4.5 14.5 24.5 4.5 24.4"/><g transform="translate(39)" fill-rule="nonzero"><polygon fill="#0000C2" points="0 0 118 0 118 29 0 29"/><path d="M14.104,20.708 C15.468,20.708 16.554,20.408 17.36,19.806 C18.167,19.205 18.57,18.361 18.57,17.276 C18.57,16.543 18.383,15.956 18.009,15.516 C17.635,15.076 17.125,14.739 16.48,14.504 C15.7866513,14.2568737 15.0724239,14.0727945 14.346,13.954 L13.576,13.822 C12.989,13.719 12.524,13.565 12.179,13.36 C11.834,13.155 11.662,12.832 11.662,12.392 C11.662,11.982 11.838,11.662 12.19,11.435 C12.542,11.208 13.026,11.094 13.642,11.094 C14.272,11.094 14.801,11.23 15.226,11.501 C15.651,11.772 15.93,12.238 16.062,12.898 L18.174,12.304 C17.9598712,11.3953736 17.4147104,10.5992035 16.645,10.071 C15.86,9.521 14.859,9.246 13.642,9.246 C12.381,9.246 11.369,9.528 10.606,10.093 C9.843,10.658 9.462,11.453 9.462,12.48 C9.462,13.17 9.638,13.734 9.99,14.174 C10.342,14.614 10.819,14.959 11.42,15.208 C12.0649031,15.4698704 12.7360941,15.6616392 13.422,15.78 L14.17,15.912 C14.889,16.044 15.431,16.212 15.798,16.418 C16.165,16.623 16.348,16.946 16.348,17.386 C16.348,17.826 16.154,18.186 15.765,18.464 C15.376,18.743 14.823,18.882 14.104,18.882 C13.6437757,18.8860769 13.1862235,18.8116781 12.751,18.662 C12.3377817,18.5187361 11.9748507,18.2589539 11.706,17.914 C11.427,17.562 11.229,17.085 11.112,16.484 L9,16.99 C9.205,18.237 9.763,19.168 10.672,19.784 C11.582,20.4 12.725,20.708 14.104,20.708 Z M28.281,20.4 L28.281,18.486 L26.015,18.486 C25.605,18.486 25.399,18.266 25.399,17.826 L25.399,11.468 L28.633,11.468 L28.633,9.554 L25.399,9.554 L25.399,5.968 L23.133,5.968 L23.133,9.554 L20.14,9.554 L20.14,11.468 L23.132,11.468 L23.132,18.222 C23.132,18.882 23.326,19.41 23.715,19.806 C24.103,20.202 24.628,20.4 25.288,20.4 L28.28,20.4 L28.281,20.4 Z M34.663,20.708 C35.411,20.708 36.013,20.602 36.467,20.389 C36.922,20.176 37.267,19.923 37.501,19.63 C37.736,19.337 37.911,19.08 38.029,18.86 L38.359,18.86 L38.359,18.926 C38.359,19.381 38.52,19.74 38.843,20.004 C39.166,20.268 39.583,20.4 40.097,20.4 L41.791,20.4 L41.791,18.508 L40.867,18.508 C40.457,18.508 40.251,18.288 40.251,17.848 L40.251,13.382 C40.251,12.062 39.848,11.042 39.041,10.324 C38.234,9.605 37.127,9.246 35.719,9.246 C34.809,9.246 34.032,9.393 33.387,9.686 C32.742,9.979 32.225,10.364 31.836,10.841 C31.4507388,11.3112711 31.1628239,11.8534485 30.989,12.436 L33.101,13.118 C33.233,12.531 33.504,12.055 33.915,11.688 C34.325,11.321 34.92,11.138 35.697,11.138 C36.489,11.138 37.076,11.328 37.457,11.71 C37.838,12.091 38.029,12.597 38.029,13.228 L38.029,13.932 L34.729,13.932 C33.937,13.932 33.229,14.057 32.606,14.306 C31.983,14.556 31.491,14.926 31.132,15.417 C30.772,15.908 30.593,16.528 30.593,17.276 C30.593,18.009 30.773,18.633 31.132,19.146 C31.492,19.659 31.975,20.048 32.584,20.312 C33.193,20.576 33.886,20.708 34.663,20.708 L34.663,20.708 Z M34.993,18.838 C34.333,18.838 33.813,18.691 33.431,18.398 C33.05,18.105 32.859,17.708 32.859,17.21 C32.859,16.711 33.042,16.334 33.409,16.077 C33.776,15.82 34.259,15.692 34.861,15.692 L38.029,15.692 L38.029,15.912 C38.029,16.822 37.75,17.536 37.193,18.057 C36.636,18.577 35.903,18.838 34.993,18.838 Z M48.47,20.708 C49.526,20.708 50.337,20.518 50.901,20.136 C51.466,19.755 51.888,19.329 52.166,18.86 L52.518,18.86 L52.518,20.4 L54.74,20.4 L54.74,5 L52.474,5 L52.474,11.028 L52.122,11.028 C51.9379989,10.707136 51.6998117,10.420567 51.418,10.181 C51.11,9.91 50.718,9.686 50.241,9.51 C49.765,9.334 49.174,9.246 48.471,9.246 C47.561,9.246 46.725,9.466 45.962,9.906 C45.2,10.346 44.591,10.984 44.136,11.82 C43.682,12.656 43.454,13.653 43.454,14.812 L43.454,15.142 C43.454,16.315 43.685,17.316 44.147,18.145 C44.609,18.974 45.222,19.608 45.984,20.048 C46.747,20.488 47.576,20.708 48.47,20.708 L48.47,20.708 Z M49.108,18.728 C48.14,18.728 47.338,18.413 46.699,17.782 C46.061,17.152 45.742,16.249 45.742,15.076 L45.742,14.878 C45.742,13.719 46.062,12.825 46.699,12.194 C47.337,11.564 48.14,11.248 49.109,11.248 C50.106,11.248 50.919,11.563 51.55,12.194 C52.18,12.824 52.496,13.719 52.496,14.878 L52.496,15.076 C52.496,16.249 52.177,17.151 51.539,17.782 C50.901,18.412 50.091,18.728 49.109,18.728 L49.108,18.728 Z M65.142,20.4 L65.142,18.486 L62.876,18.486 C62.466,18.486 62.26,18.266 62.26,17.826 L62.26,11.468 L65.494,11.468 L65.494,9.554 L62.26,9.554 L62.26,5.968 L59.994,5.968 L59.994,9.554 L57.002,9.554 L57.002,11.468 L59.994,11.468 L59.994,18.222 C59.994,18.882 60.188,19.41 60.577,19.806 C60.965,20.202 61.49,20.4 62.15,20.4 L65.142,20.4 L65.142,20.4 Z M70.424,24.8 L70.424,18.926 L70.776,18.926 C70.952,19.219 71.186,19.502 71.48,19.773 C71.773,20.044 72.162,20.268 72.646,20.444 C73.13,20.62 73.724,20.708 74.428,20.708 C75.338,20.708 76.173,20.488 76.936,20.048 C77.699,19.608 78.307,18.974 78.762,18.145 C79.217,17.316 79.444,16.315 79.444,15.142 L79.444,14.812 C79.444,13.639 79.213,12.638 78.751,11.809 C78.289,10.98 77.681,10.346 76.925,9.906 C76.1672176,9.46532369 75.3045581,9.23730796 74.428,9.246 C73.372,9.246 72.562,9.436 71.997,9.818 C71.432,10.199 71.011,10.632 70.732,11.116 L70.38,11.116 L70.38,9.554 L68.158,9.554 L68.158,24.8 L70.424,24.8 L70.424,24.8 Z M73.768,18.728 C72.8,18.728 71.997,18.413 71.359,17.782 C70.721,17.152 70.402,16.249 70.402,15.076 L70.402,14.878 C70.402,13.719 70.721,12.825 71.359,12.194 C71.997,11.564 72.8,11.248 73.768,11.248 C74.751,11.248 75.561,11.563 76.199,12.194 C76.837,12.824 77.156,13.719 77.156,14.878 L77.156,15.076 C77.156,16.249 76.841,17.151 76.21,17.782 C75.58,18.412 74.765,18.728 73.768,18.728 L73.768,18.728 Z M86.414,20.598 C87.44,20.598 88.218,20.404 88.746,20.015 C89.274,19.626 89.64,19.212 89.846,18.772 L90.198,18.772 L90.198,20.4 L92.42,20.4 L92.42,9.554 L90.154,9.554 L90.154,15.032 C90.154,16.205 89.871,17.104 89.307,17.727 C88.742,18.35 87.997,18.662 87.074,18.662 C86.238,18.662 85.584,18.438 85.116,17.991 C84.646,17.544 84.412,16.851 84.412,15.912 L84.412,9.554 L82.146,9.554 L82.146,16.066 C82.146,17.005 82.329,17.811 82.696,18.486 C83.0430709,19.1404962 83.5696851,19.6823746 84.214,20.048 C84.859,20.415 85.592,20.598 86.414,20.598 L86.414,20.598 Z M98.035,20.4 L98.035,5 L95.769,5 L95.769,20.4 L98.035,20.4 Z M105.835,20.708 C107.198,20.708 108.283,20.408 109.09,19.806 C109.897,19.205 110.3,18.361 110.3,17.276 C110.3,16.543 110.113,15.956 109.74,15.516 C109.365,15.076 108.855,14.739 108.21,14.504 C107.516651,14.2568737 106.802424,14.0727945 106.076,13.954 L105.306,13.822 C104.719,13.719 104.254,13.565 103.909,13.36 C103.564,13.155 103.392,12.832 103.392,12.392 C103.392,11.982 103.568,11.662 103.92,11.435 C104.272,11.208 104.756,11.094 105.372,11.094 C106.002,11.094 106.531,11.23 106.956,11.501 C107.381,11.772 107.66,12.238 107.792,12.898 L109.904,12.304 C109.689871,11.3953736 109.14471,10.5992035 108.375,10.071 C107.59,9.521 106.589,9.246 105.372,9.246 C104.111,9.246 103.099,9.528 102.336,10.093 C101.573,10.658 101.192,11.453 101.192,12.48 C101.192,13.17 101.368,13.734 101.72,14.174 C102.072,14.614 102.549,14.959 103.15,15.208 C103.794903,15.4698704 104.466094,15.6616392 105.152,15.78 L105.9,15.912 C106.619,16.044 107.161,16.212 107.528,16.418 C107.895,16.623 108.078,16.946 108.078,17.386 C108.078,17.826 107.884,18.186 107.495,18.464 C107.106,18.743 106.553,18.882 105.835,18.882 C105.35,18.882 104.899,18.809 104.481,18.662 C104.067782,18.5187361 103.704851,18.2589539 103.436,17.914 C103.157,17.562 102.959,17.085 102.842,16.484 L100.73,16.99 C100.935,18.237 101.493,19.168 102.402,19.784 C103.312,20.4 104.455,20.708 105.834,20.708 L105.835,20.708 Z" fill="#46ECA1"/></g></g></svg>